<?xml version="1.0" encoding="UTF-8" standalone="no"?>
<!-- Created with Inkscape (http://www.inkscape.org/) -->

<svg
   xmlns:dc="http://purl.org/dc/elements/1.1/"
   xmlns:cc="http://creativecommons.org/ns#"
   xmlns:rdf="http://www.w3.org/1999/02/22-rdf-syntax-ns#"
   xmlns:svg="http://www.w3.org/2000/svg"
   xmlns="http://www.w3.org/2000/svg"
   xmlns:sodipodi="http://sodipodi.sourceforge.net/DTD/sodipodi-0.dtd"
   xmlns:inkscape="http://www.inkscape.org/namespaces/inkscape"
   width="58.925121mm"
   height="33.436111mm"
   viewBox="0 0 58.92512 33.436112"
   version="1.1"
   id="svg1228"
   inkscape:version="0.92.3 (2405546, 2018-03-11)"
   sodipodi:docname="logo-solucao-criativa.svg">
  <defs
     id="defs1222">
    <inkscape:path-effect
       effect="skeletal"
       id="path-effect884"
       is_visible="true"
       pattern="M 0,5 C 0,2.24 2.24,0 5,0 7.76,0 10,2.24 10,5 10,7.76 7.76,10 5,10 2.24,10 0,7.76 0,5 Z"
       copytype="single_stretched"
       prop_scale="0.26458332"
       scale_y_rel="false"
       spacing="0"
       normal_offset="0"
       tang_offset="0"
       prop_units="false"
       vertical_pattern="false"
       fuse_tolerance="0" />
    <clipPath
       clipPathUnits="userSpaceOnUse"
       id="clipPath851">
      <path
         style="color:#000000;display:inline;overflow:visible;visibility:visible;opacity:1;fill:#888a85;fill-opacity:1;fill-rule:evenodd;stroke:none;stroke-width:0.25563934;stroke-linecap:round;stroke-linejoin:round;stroke-miterlimit:4;stroke-dasharray:none;stroke-dashoffset:0;stroke-opacity:1;marker:none;enable-background:accumulate"
         d="m 123.52696,180.72708 h 38.94661 c 0.60571,0 1.09335,0.48763 1.09335,1.09335 v 24.85626 c 0,0.60572 -0.48764,1.09335 -1.09335,1.09335 h -38.94661 c -0.60572,0 -1.09335,-0.48763 -1.09335,-1.09335 v -24.85626 c 0,-0.60572 0.48763,-1.09335 1.09335,-1.09335 z"
         id="path853"
         inkscape:connector-curvature="0"
         sodipodi:nodetypes="sssssssss" />
    </clipPath>
    <clipPath
       clipPathUnits="userSpaceOnUse"
       id="clipPath857">
      <path
         style="color:#000000;display:inline;overflow:visible;visibility:visible;opacity:1;fill:#a40000;fill-opacity:1;fill-rule:evenodd;stroke:none;stroke-width:0.23268507;stroke-linecap:round;stroke-linejoin:round;stroke-miterlimit:4;stroke-dasharray:none;stroke-dashoffset:0;stroke-opacity:1;marker:none;enable-background:accumulate"
         d="m 123.52696,180.72708 h 38.94661 c 0.60571,0 1.09335,-0.40399 1.09335,-0.90582 v -20.5929 c 0,-0.50182 -0.48764,-0.90581 -1.09335,-0.90581 h -38.94661 c -0.60572,0 -1.09335,0.40399 -1.09335,0.90581 v 20.5929 c 0,0.50183 0.48763,0.90582 1.09335,0.90582 z"
         id="path859"
         inkscape:connector-curvature="0" />
    </clipPath>
    <clipPath
       clipPathUnits="userSpaceOnUse"
       id="clipPath883">
      <path
         style="color:#000000;display:inline;overflow:visible;visibility:visible;opacity:1;fill:#1f4c5d;fill-opacity:1;fill-rule:evenodd;stroke:none;stroke-width:0.26458332;stroke-linecap:round;stroke-linejoin:round;stroke-miterlimit:4;stroke-dasharray:none;stroke-dashoffset:0;stroke-opacity:1;marker:none;enable-background:accumulate"
         d="m 133.59373,179.90134 h 29.42653 c 0.64884,0 1.17119,0.52235 1.17119,1.17119 v 2.47108 c 0,0.64885 -0.52235,1.1712 -1.17119,1.1712 h -29.42653 c -0.64885,0 -1.1712,-0.52235 -1.1712,-1.1712 v -2.47108 c 0,-0.64884 0.52235,-1.17119 1.1712,-1.17119 z"
         id="path885"
         inkscape:connector-curvature="0" />
    </clipPath>
    <filter
       inkscape:collect="always"
       style="color-interpolation-filters:sRGB"
       id="filter3307-9"
       x="-0.052957807"
       width="1.1059155"
       y="-0.069202363"
       height="1.1384047">
      <feGaussianBlur
         inkscape:collect="always"
         stdDeviation="0.12700509"
         id="feGaussianBlur3309-1" />
    </filter>
    <filter
       inkscape:collect="always"
       style="color-interpolation-filters:sRGB"
       id="filter3333-4"
       x="-0.063549362"
       width="1.1270987"
       y="-0.08304283"
       height="1.1660857">
      <feGaussianBlur
         inkscape:collect="always"
         stdDeviation="0.1524061"
         id="feGaussianBlur3335-9" />
    </filter>
    <filter
       inkscape:collect="always"
       style="color-interpolation-filters:sRGB"
       id="filter3521-1"
       x="-0.019585377"
       width="1.0391707"
       y="-0.011448238"
       height="1.0228965">
      <feGaussianBlur
         inkscape:collect="always"
         stdDeviation="0.064727017"
         id="feGaussianBlur3523-0" />
    </filter>
    <filter
       inkscape:collect="always"
       style="color-interpolation-filters:sRGB"
       id="filter3525-7"
       x="-0.018215423"
       width="1.0364308"
       y="-0.011244699"
       height="1.0224894">
      <feGaussianBlur
         inkscape:collect="always"
         stdDeviation="0.064727017"
         id="feGaussianBlur3527-5" />
    </filter>
    <filter
       inkscape:collect="always"
       style="color-interpolation-filters:sRGB"
       id="filter3529-8"
       x="-0.018051146"
       width="1.0361023"
       y="-0.011406813"
       height="1.0228136">
      <feGaussianBlur
         inkscape:collect="always"
         stdDeviation="0.064727017"
         id="feGaussianBlur3531-7" />
    </filter>
    <filter
       inkscape:collect="always"
       style="color-interpolation-filters:sRGB"
       id="filter3533-0"
       x="-0.018472958"
       width="1.0369459"
       y="-0.011509822"
       height="1.0230196">
      <feGaussianBlur
         inkscape:collect="always"
         stdDeviation="0.064727017"
         id="feGaussianBlur3535-4" />
    </filter>
    <filter
       inkscape:collect="always"
       style="color-interpolation-filters:sRGB"
       id="filter3561-8"
       x="-0.058756135"
       width="1.1175123"
       y="-0.034344718"
       height="1.0686893">
      <feGaussianBlur
         inkscape:collect="always"
         stdDeviation="0.19418107"
         id="feGaussianBlur3563-0" />
    </filter>
    <filter
       inkscape:collect="always"
       style="color-interpolation-filters:sRGB"
       id="filter3565-4"
       x="-0.054646272"
       width="1.1092925"
       y="-0.033734102"
       height="1.0674682">
      <feGaussianBlur
         inkscape:collect="always"
         stdDeviation="0.19418107"
         id="feGaussianBlur3567-2" />
    </filter>
    <filter
       inkscape:collect="always"
       style="color-interpolation-filters:sRGB"
       id="filter3569-9"
       x="-0.054153442"
       width="1.1083069"
       y="-0.034220442"
       height="1.0684409">
      <feGaussianBlur
         inkscape:collect="always"
         stdDeviation="0.19418107"
         id="feGaussianBlur3571-6" />
    </filter>
    <filter
       inkscape:collect="always"
       style="color-interpolation-filters:sRGB"
       id="filter3573-1"
       x="-0.055418883"
       width="1.1108378"
       y="-0.034529466"
       height="1.0690589">
      <feGaussianBlur
         inkscape:collect="always"
         stdDeviation="0.19418107"
         id="feGaussianBlur3575-0" />
    </filter>
  </defs>
  <sodipodi:namedview
     id="base"
     pagecolor="#ffffff"
     bordercolor="#666666"
     borderopacity="1.0"
     inkscape:pageopacity="0.0"
     inkscape:pageshadow="2"
     inkscape:zoom="1.4142136"
     inkscape:cx="145.10713"
     inkscape:cy="106.39287"
     inkscape:document-units="px"
     inkscape:current-layer="layer1"
     showgrid="false"
     showborder="true"
     showguides="true"
     inkscape:guide-bbox="true"
     inkscape:lockguides="false"
     inkscape:snap-nodes="false"
     inkscape:window-width="1280"
     inkscape:window-height="710"
     inkscape:window-x="0"
     inkscape:window-y="25"
     inkscape:window-maximized="1"
     fit-margin-top="0"
     fit-margin-left="0"
     fit-margin-right="0"
     fit-margin-bottom="0"
     inkscape:showpageshadow="false" />
  <metadata
     id="metadata1225">
    <rdf:RDF>
      <cc:Work
         rdf:about="">
        <dc:format>image/svg+xml</dc:format>
        <dc:type
           rdf:resource="http://purl.org/dc/dcmitype/StillImage" />
        <dc:title />
      </cc:Work>
    </rdf:RDF>
  </metadata>
  <g
     inkscape:groupmode="layer"
     id="layer2"
     inkscape:label="fundo"
     transform="translate(-19.09413,101.19159)" />
  <g
     inkscape:groupmode="layer"
     id="layer1"
     inkscape:label="icone"
     transform="translate(-19.09413,101.19159)">
    <path
       style="color:#000000;display:inline;overflow:visible;visibility:visible;opacity:1;fill:#1a1a1a;fill-opacity:1;fill-rule:evenodd;stroke:none;stroke-width:0.01733255;stroke-linecap:round;stroke-linejoin:round;stroke-miterlimit:4;stroke-dasharray:none;stroke-dashoffset:0;stroke-opacity:1;marker:none;paint-order:normal;enable-background:accumulate"
       d="m 51.115045,-96.65955 c -0.127457,-4.72e-4 -0.26858,0.08953 -0.355476,0.240042 l -0.381321,0.659949 c 0.229631,-0.041 0.694929,0.03642 1.13414,0.30119 0.407662,0.245715 0.676952,0.583296 0.76852,0.807112 l 0.385242,-0.667468 c 0.115866,-0.200684 0.09021,-0.430745 -0.05752,-0.516058 l -1.373198,-0.793043 c -0.03698,-0.02131 -0.07786,-0.03157 -0.120349,-0.0317 z"
       id="path1529-2"
       inkscape:connector-curvature="0" />
    <path
       inkscape:connector-curvature="0"
       style="color:#000000;display:inline;overflow:visible;visibility:visible;opacity:1;fill:#0dd3ff;fill-opacity:1;fill-rule:evenodd;stroke:none;stroke-width:0.0085711;stroke-linecap:round;stroke-linejoin:round;stroke-miterlimit:4;stroke-dasharray:none;stroke-dashoffset:0;stroke-opacity:1;marker:none;paint-order:normal;enable-background:accumulate"
       d="m 46.129439,-85.42482 a 0.90255873,0.84819118 30.000026 0 0 -0.05571,-0.06998 0.90255873,0.84819118 30.000026 0 0 -0.06231,-0.06454 0.90255873,0.84819118 30.000026 0 0 -0.06841,-0.05847 0.90255873,0.84819118 30.000026 0 0 -0.07371,-0.052 0.90255873,0.84819118 30.000026 0 0 -0.0333,-0.0203 0.90255873,0.84819118 30.000026 0 0 -0.08019,-0.04128 0.90255873,0.84819118 30.000026 0 0 -0.08364,-0.03352 0.90255873,0.84819118 30.000026 0 0 -0.0862,-0.02543 0.90255873,0.84819118 30.000026 0 0 -0.08796,-0.01713 0.90255873,0.84819118 30.000026 0 0 -0.04781,-0.0054 l -0.102854,0.954686 z"
       id="path1543-0" />
    <path
       id="path1545-5"
       d="m 46.737814,-87.357256 c -0.321212,-0.175258 -0.691444,-0.231423 -1.100562,-0.193157 l -0.187121,1.737336 a 0.90255873,0.84819118 30.000026 0 1 0.04781,0.0054 0.90255873,0.84819118 30.000026 0 1 0.08796,0.01713 0.90255873,0.84819118 30.000026 0 1 0.0862,0.02543 0.90255873,0.84819118 30.000026 0 1 0.08364,0.03352 0.90255873,0.84819118 30.000026 0 1 0.0802,0.04128 0.90255873,0.84819118 30.000026 0 1 0.0333,0.0203 0.90255873,0.84819118 30.000026 0 1 0.07371,0.05193 0.90255873,0.84819118 30.000026 0 1 0.06842,0.05847 0.90255873,0.84819118 30.000026 0 1 0.06231,0.06454 0.90255873,0.84819118 30.000026 0 1 0.05571,0.06998 l 1.414742,-1.024621 c -0.21296,-0.438217 -0.485154,-0.732556 -0.806366,-0.907814 z"
       style="color:#000000;display:inline;overflow:visible;visibility:visible;opacity:1;fill:#1a1a1a;fill-opacity:1;fill-rule:evenodd;stroke:none;stroke-width:0.0085711;stroke-linecap:round;stroke-linejoin:round;stroke-miterlimit:4;stroke-dasharray:none;stroke-dashoffset:0;stroke-opacity:1;marker:none;paint-order:normal;enable-background:accumulate"
       inkscape:connector-curvature="0" />
    <path
       inkscape:connector-curvature="0"
       style="color:#000000;display:inline;overflow:visible;visibility:visible;opacity:1;fill:#0d6dff;fill-opacity:1;fill-rule:evenodd;stroke:none;stroke-width:0.01704497;stroke-linecap:round;stroke-linejoin:round;stroke-miterlimit:4;stroke-dasharray:none;stroke-dashoffset:0;stroke-opacity:1;marker:none;paint-order:normal;enable-background:accumulate"
       d="m 52.255611,-95.037679 -4.834244,8.373162 a 1.2533161,0.54028615 30.000001 0 1 0.123406,0.21407 l 4.896086,-8.480278 z"
       id="path1547-5" />
    <path
       inkscape:connector-curvature="0"
       style="color:#000000;display:inline;overflow:visible;visibility:visible;opacity:1;fill:#0d8eff;fill-opacity:1;fill-rule:evenodd;stroke:none;stroke-width:0.01704497;stroke-linecap:round;stroke-linejoin:round;stroke-miterlimit:4;stroke-dasharray:none;stroke-dashoffset:0;stroke-opacity:1;marker:none;paint-order:normal;enable-background:accumulate"
       d="m 51.615611,-95.407181 -4.756995,8.239366 a 1.2533161,0.54028615 30.000001 0 1 0.562751,0.503298 l 4.834244,-8.373162 z"
       id="path1549-2" />
    <path
       inkscape:connector-curvature="0"
       style="color:#000000;display:inline;overflow:visible;visibility:visible;opacity:1;fill:#0daeff;fill-opacity:1;fill-rule:evenodd;stroke:none;stroke-width:0.01704497;stroke-linecap:round;stroke-linejoin:round;stroke-miterlimit:4;stroke-dasharray:none;stroke-dashoffset:0;stroke-opacity:1;marker:none;paint-order:normal;enable-background:accumulate"
       d="m 50.95909,-95.786225 -4.789593,8.295814 a 1.2533161,0.54028615 30.000001 0 1 0.564013,0.24562 1.2533161,0.54028615 30.000001 0 1 0.125106,0.07698 l 4.756995,-8.239366 z"
       id="path1551-9" />
    <path
       inkscape:connector-curvature="0"
       style="color:#000000;display:inline;overflow:visible;visibility:visible;opacity:1;fill:#0dd3ff;fill-opacity:1;fill-rule:evenodd;stroke:none;stroke-width:0.01704497;stroke-linecap:round;stroke-linejoin:round;stroke-miterlimit:4;stroke-dasharray:none;stroke-dashoffset:0;stroke-opacity:1;marker:none;paint-order:normal;enable-background:accumulate"
       d="m 50.533925,-96.031696 -4.896598,8.481148 a 1.2533161,0.54028615 30.000001 0 1 0.53217,0.06016 l 4.789593,-8.295821 z"
       id="path1553-0" />
    <path
       inkscape:connector-curvature="0"
       style="color:#000000;display:inline;overflow:visible;visibility:visible;opacity:1;fill:#5590dc;fill-opacity:1;fill-rule:evenodd;stroke:none;stroke-width:0.01986416;stroke-linecap:round;stroke-linejoin:round;stroke-miterlimit:4;stroke-dasharray:none;stroke-dashoffset:0;stroke-opacity:1;marker:none;paint-order:normal;enable-background:accumulate"
       d="m 43.13729,-89.168197 a 3.6642974,2.8427059 0 0 1 -0.329642,-0.03959 3.6642974,2.8427059 0 0 1 -0.35483,-0.07031 3.6642974,2.8427059 0 0 1 -0.344363,-0.09745 3.6642974,2.8427059 0 0 1 -0.329647,-0.123288 3.6642974,2.8427059 0 0 1 -0.312311,-0.148478 3.6642974,2.8427059 0 0 1 -0.275032,-0.161879 c 0.02147,0.03595 0.03981,0.07347 0.0726,0.103016 l 2.856273,2.574055 c 0.175824,0.158445 0.444921,0.144748 0.603371,-0.03109 0.158454,-0.175818 0.144429,-0.44492 -0.03141,-0.603366 z"
       id="path1555-2" />
    <path
       style="color:#000000;display:inline;overflow:visible;visibility:visible;opacity:1;fill:#1a1a1a;fill-opacity:1;fill-rule:evenodd;stroke:none;stroke-width:0.01986416;stroke-linecap:round;stroke-linejoin:round;stroke-miterlimit:4;stroke-dasharray:none;stroke-dashoffset:0;stroke-opacity:1;marker:none;paint-order:normal;enable-background:accumulate"
       d="m 44.387723,-93.062641 c -0.09555,0.0047 -0.190391,0.0406 -0.267313,0.109874 l -2.856248,2.574041 c -0.0989,0.08913 -0.146621,0.213281 -0.141223,0.336139 10e-6,7.4e-5 -5e-6,1.55e-4 0,2.22e-4 0,4.7e-5 0,1.08e-4 0,1.48e-4 -0.0035,0.07679 0.01402,0.154082 0.05166,0.223007 a 3.6642975,2.8427059 0 0 0 7.5e-5,8.1e-5 3.6642975,2.8427059 0 0 0 1.962593,0.650939 l -0.97001,-0.874175 2.525156,-2.275689 c 0.175824,-0.158452 0.1898,-0.427555 0.03136,-0.60338 -0.08912,-0.09889 -0.213204,-0.146616 -0.336058,-0.141214 z"
       id="path1557-8"
       inkscape:connector-curvature="0" />
    <path
       id="path1560-3"
       d="m 54.014677,-90.9166 a 3.6642974,2.8427059 0 0 1 0.329646,0.03959 3.6642974,2.8427059 0 0 1 0.35483,0.07031 3.6642974,2.8427059 0 0 1 0.344364,0.09746 3.6642974,2.8427059 0 0 1 0.329641,0.123288 3.6642974,2.8427059 0 0 1 0.312312,0.148471 3.6642974,2.8427059 0 0 1 0.275036,0.161885 c -0.02147,-0.03595 -0.03981,-0.07348 -0.0726,-0.103016 l -2.856283,-2.574047 c -0.175815,-0.158452 -0.444917,-0.144755 -0.603371,0.03109 -0.158445,0.175818 -0.144419,0.44492 0.03141,0.603373 z"
       style="color:#000000;display:inline;overflow:visible;visibility:visible;opacity:1;fill:#e7a800;fill-opacity:1;fill-rule:evenodd;stroke:none;stroke-width:0.01986416;stroke-linecap:round;stroke-linejoin:round;stroke-miterlimit:4;stroke-dasharray:none;stroke-dashoffset:0;stroke-opacity:1;marker:none;paint-order:normal;enable-background:accumulate"
       inkscape:connector-curvature="0" />
    <path
       inkscape:connector-curvature="0"
       id="path1562-8"
       d="m 52.764243,-87.022156 c 0.09556,-0.004 0.190392,-0.04053 0.267318,-0.109875 l 2.856243,-2.57404 c 0.0989,-0.08912 0.146626,-0.213282 0.141229,-0.336139 -5e-6,-8.1e-5 0,-1.48e-4 0,-2.22e-4 0,-5.4e-5 -5e-6,-1.01e-4 0,-1.55e-4 0.0035,-0.07678 -0.01402,-0.154069 -0.05166,-0.223007 a 3.6642975,2.8427059 0 0 0 -7.9e-5,-7.4e-5 3.6642975,2.8427059 0 0 0 -1.962599,-0.650939 l 0.97001,0.874182 -2.52515,2.275682 c -0.17582,0.158452 -0.189801,0.427554 -0.03136,0.603373 0.08913,0.0989 0.213204,0.146623 0.336063,0.141221 z"
       style="color:#000000;display:inline;overflow:visible;visibility:visible;opacity:1;fill:#1a1a1a;fill-opacity:1;fill-rule:evenodd;stroke:none;stroke-width:0.01986416;stroke-linecap:round;stroke-linejoin:round;stroke-miterlimit:4;stroke-dasharray:none;stroke-dashoffset:0;stroke-opacity:1;marker:none;paint-order:normal;enable-background:accumulate" />
    <path
       transform="matrix(0.63284124,0,0,0.63284124,84.866788,-24.246201)"
       inkscape:connector-curvature="0"
       style="color:#000000;display:inline;overflow:visible;visibility:visible;opacity:1;fill:#e5e700;fill-opacity:1;fill-rule:evenodd;stroke:none;stroke-width:0.03138885;stroke-linecap:round;stroke-linejoin:round;stroke-miterlimit:4;stroke-dasharray:none;stroke-dashoffset:0;stroke-opacity:1;marker:none;paint-order:normal;filter:url(#filter3307-9);enable-background:accumulate"
       d="m -48.751741,-105.35091 a 5.7902318,4.4919733 0 0 1 0.520898,0.0625 5.7902318,4.4919733 0 0 1 0.560689,0.1111 5.7902318,4.4919733 0 0 1 0.544153,0.154 5.7902318,4.4919733 0 0 1 0.5209,0.19482 5.7902318,4.4919733 0 0 1 0.493508,0.23461 5.7902318,4.4919733 0 0 1 0.4346,0.2558 c -0.03392,-0.0568 -0.06292,-0.1161 -0.114721,-0.16278 l -4.513421,-4.06745 c -0.277828,-0.25038 -0.703051,-0.22874 -0.95343,0.0491 -0.250378,0.27782 -0.228213,0.70305 0.04961,0.95343 z"
       id="path1564-0" />
    <path
       transform="matrix(0.63284124,0,0,0.63284124,84.866788,-24.246201)"
       id="path1566-4"
       d="m -65.939918,-102.58813 a 5.7902318,4.4919733 0 0 1 -0.520898,-0.0625 5.7902318,4.4919733 0 0 1 -0.560689,-0.11111 5.7902318,4.4919733 0 0 1 -0.544153,-0.15399 5.7902318,4.4919733 0 0 1 -0.5209,-0.19482 5.7902318,4.4919733 0 0 1 -0.493508,-0.23462 5.7902318,4.4919733 0 0 1 -0.4346,-0.2558 c 0.03392,0.0568 0.06292,0.1161 0.114721,0.16279 l 4.513421,4.067448 c 0.277828,0.250378 0.703051,0.228732 0.95343,-0.04909 0.250378,-0.277828 0.228213,-0.703058 -0.04961,-0.953428 z"
       style="color:#000000;display:inline;overflow:visible;visibility:visible;opacity:1;fill:#0dd3ff;fill-opacity:1;fill-rule:evenodd;stroke:none;stroke-width:0.03138885;stroke-linecap:round;stroke-linejoin:round;stroke-miterlimit:4;stroke-dasharray:none;stroke-dashoffset:0;stroke-opacity:1;marker:none;paint-order:normal;filter:url(#filter3333-4);enable-background:accumulate"
       inkscape:connector-curvature="0" />
    <path
       transform="matrix(0.63284124,0,0,0.63284124,84.866788,-24.246201)"
       id="path1568-0"
       d="m -51.531378,-111.86294 -7.638954,13.231064 a 1.9804589,0.85374679 30.000001 0 1 0.194998,0.338263 l 7.736677,-13.400317 z"
       style="color:#000000;display:inline;overflow:visible;visibility:visible;opacity:1;fill:#0d6dff;fill-opacity:1;fill-rule:evenodd;stroke:none;stroke-width:0.02693404;stroke-linecap:round;stroke-linejoin:round;stroke-miterlimit:4;stroke-dasharray:none;stroke-dashoffset:0;stroke-opacity:1;marker:none;paint-order:normal;filter:url(#filter3521-1);enable-background:accumulate"
       inkscape:connector-curvature="0" />
    <path
       transform="matrix(0.63284124,0,0,0.63284124,84.866788,-24.246201)"
       id="path1570-9"
       d="m -52.542688,-112.44682 -7.516894,13.019648 a 1.9804589,0.85374679 30.000001 0 1 0.88925,0.795296 l 7.638954,-13.231064 z"
       style="color:#000000;display:inline;overflow:visible;visibility:visible;opacity:1;fill:#0d8eff;fill-opacity:1;fill-rule:evenodd;stroke:none;stroke-width:0.02693404;stroke-linecap:round;stroke-linejoin:round;stroke-miterlimit:4;stroke-dasharray:none;stroke-dashoffset:0;stroke-opacity:1;marker:none;paint-order:normal;filter:url(#filter3525-7);enable-background:accumulate"
       inkscape:connector-curvature="0" />
    <path
       transform="matrix(0.63284124,0,0,0.63284124,84.866788,-24.246201)"
       id="path1572-1"
       d="m -53.580112,-113.04577 -7.568392,13.108837 a 1.9804589,0.85374679 30.000001 0 1 0.891238,0.388124 1.9804589,0.85374679 30.000001 0 1 0.197684,0.121637 l 7.516894,-13.019648 z"
       style="color:#000000;display:inline;overflow:visible;visibility:visible;opacity:1;fill:#0daeff;fill-opacity:1;fill-rule:evenodd;stroke:none;stroke-width:0.02693404;stroke-linecap:round;stroke-linejoin:round;stroke-miterlimit:4;stroke-dasharray:none;stroke-dashoffset:0;stroke-opacity:1;marker:none;paint-order:normal;filter:url(#filter3529-8);enable-background:accumulate"
       inkscape:connector-curvature="0" />
    <path
       transform="matrix(0.63284124,0,0,0.63284124,84.866788,-24.246201)"
       id="path1574-9"
       d="m -54.251948,-113.43366 -7.737474,13.4017 a 1.9804589,0.85374679 30.000001 0 1 0.840918,0.09502 l 7.568392,-13.10884 z"
       style="color:#000000;display:inline;overflow:visible;visibility:visible;opacity:1;fill:#0dd3ff;fill-opacity:1;fill-rule:evenodd;stroke:none;stroke-width:0.02693404;stroke-linecap:round;stroke-linejoin:round;stroke-miterlimit:4;stroke-dasharray:none;stroke-dashoffset:0;stroke-opacity:1;marker:none;paint-order:normal;filter:url(#filter3533-0);enable-background:accumulate"
       inkscape:connector-curvature="0" />
    <path
       transform="matrix(0.63284124,0,0,0.63284124,84.866788,-24.246201)"
       inkscape:connector-curvature="0"
       style="color:#000000;display:inline;overflow:visible;visibility:visible;opacity:0.87999998;fill:#0d6dff;fill-opacity:1;fill-rule:evenodd;stroke:none;stroke-width:0.02693404;stroke-linecap:round;stroke-linejoin:round;stroke-miterlimit:4;stroke-dasharray:none;stroke-dashoffset:0;stroke-opacity:1;marker:none;paint-order:normal;filter:url(#filter3561-8);enable-background:accumulate"
       d="m -51.531378,-111.86294 -7.638954,13.231064 a 1.9804589,0.85374679 30.000001 0 1 0.194998,0.338263 l 7.736677,-13.400317 z"
       id="path1576-6" />
    <path
       transform="matrix(0.63284124,0,0,0.63284124,84.866788,-24.246201)"
       inkscape:connector-curvature="0"
       style="color:#000000;display:inline;overflow:visible;visibility:visible;opacity:0.87999998;fill:#0d8eff;fill-opacity:1;fill-rule:evenodd;stroke:none;stroke-width:0.02693404;stroke-linecap:round;stroke-linejoin:round;stroke-miterlimit:4;stroke-dasharray:none;stroke-dashoffset:0;stroke-opacity:1;marker:none;paint-order:normal;filter:url(#filter3565-4);enable-background:accumulate"
       d="m -52.542688,-112.44682 -7.516894,13.019648 a 1.9804589,0.85374679 30.000001 0 1 0.88925,0.795296 l 7.638954,-13.231064 z"
       id="path1578-2" />
    <path
       transform="matrix(0.63284124,0,0,0.63284124,84.866788,-24.246201)"
       inkscape:connector-curvature="0"
       style="color:#000000;display:inline;overflow:visible;visibility:visible;opacity:0.87999998;fill:#0daeff;fill-opacity:1;fill-rule:evenodd;stroke:none;stroke-width:0.02693404;stroke-linecap:round;stroke-linejoin:round;stroke-miterlimit:4;stroke-dasharray:none;stroke-dashoffset:0;stroke-opacity:1;marker:none;paint-order:normal;filter:url(#filter3569-9);enable-background:accumulate"
       d="m -53.580112,-113.04577 -7.568392,13.108837 a 1.9804589,0.85374679 30.000001 0 1 0.891238,0.388124 1.9804589,0.85374679 30.000001 0 1 0.197684,0.121637 l 7.516894,-13.019648 z"
       id="path1580-5" />
    <path
       transform="matrix(0.63284124,0,0,0.63284124,84.866788,-24.246201)"
       inkscape:connector-curvature="0"
       style="color:#000000;display:inline;overflow:visible;visibility:visible;opacity:0.87999998;fill:#0dd3ff;fill-opacity:1;fill-rule:evenodd;stroke:none;stroke-width:0.02693404;stroke-linecap:round;stroke-linejoin:round;stroke-miterlimit:4;stroke-dasharray:none;stroke-dashoffset:0;stroke-opacity:1;marker:none;paint-order:normal;filter:url(#filter3573-1);enable-background:accumulate"
       d="m -54.251948,-113.43366 -7.737474,13.4017 a 1.9804589,0.85374679 30.000001 0 1 0.840918,0.09502 l 7.568392,-13.10884 z"
       id="path1582-4" />
    <path
       style="color:#000000;font-style:normal;font-variant:normal;font-weight:normal;font-stretch:normal;font-size:medium;line-height:normal;font-family:sans-serif;font-variant-ligatures:normal;font-variant-position:normal;font-variant-caps:normal;font-variant-numeric:normal;font-variant-alternates:normal;font-feature-settings:normal;text-indent:0;text-align:start;text-decoration:none;text-decoration-line:none;text-decoration-style:solid;text-decoration-color:#000000;letter-spacing:normal;word-spacing:normal;text-transform:none;writing-mode:lr-tb;direction:ltr;text-orientation:mixed;dominant-baseline:auto;baseline-shift:baseline;text-anchor:start;white-space:normal;shape-padding:0;clip-rule:nonzero;display:inline;overflow:visible;visibility:visible;opacity:1;isolation:auto;mix-blend-mode:normal;color-interpolation:sRGB;color-interpolation-filters:linearRGB;solid-color:#000000;solid-opacity:1;vector-effect:none;fill:#2bdff6;fill-opacity:1;fill-rule:nonzero;stroke:none;stroke-width:2.52536249;stroke-linecap:butt;stroke-linejoin:miter;stroke-miterlimit:4;stroke-dasharray:none;stroke-dashoffset:0;stroke-opacity:1;color-rendering:auto;image-rendering:auto;shape-rendering:auto;text-rendering:auto;enable-background:accumulate"
       d="M 48.683594 74.660156 L 48.683594 96.751953 L 51.265625 96.751953 L 51.265625 74.660156 L 48.683594 74.660156 z M 97.908203 78.138672 C 97.829891 79.033309 97.220385 79.777934 96.359375 80.033203 C 95.699965 80.228718 95.008069 80.098412 94.470703 79.710938 C 93.573171 78.828335 92.338837 78.318958 91.033203 78.357422 C 89.106547 78.414228 87.40186 79.649681 86.748047 81.462891 L 89.123047 82.318359 C 89.427677 81.473548 90.209758 80.909258 91.107422 80.882812 C 91.58969 80.868453 92.048098 81.011682 92.423828 81.275391 C 93.630869 82.477534 95.415255 82.949443 97.076172 82.457031 C 98.924153 81.909155 100.25576 80.277569 100.42383 78.357422 L 97.908203 78.138672 z M 37.611328 83.517578 C 36.683401 83.517578 35.813736 83.694528 35.003906 84.048828 C 34.194079 84.386257 33.486279 84.857474 32.878906 85.464844 C 32.271536 86.072214 31.789845 86.781968 31.435547 87.591797 C 31.098118 88.401624 30.929687 89.269336 30.929688 90.197266 C 30.929687 91.125193 31.098118 91.994861 31.435547 92.804688 C 31.789845 93.614514 32.271536 94.322317 32.878906 94.929688 C 33.486279 95.537055 34.194079 96.018746 35.003906 96.373047 C 35.813736 96.710476 36.683401 96.878906 37.611328 96.878906 C 38.539255 96.878906 39.40697 96.710476 40.216797 96.373047 C 41.026626 96.018746 41.73638 95.537055 42.34375 94.929688 C 42.95112 94.322317 43.422337 93.614514 43.759766 92.804688 C 44.114066 91.994861 44.291016 91.125193 44.291016 90.197266 C 44.291016 89.269336 44.114066 88.401624 43.759766 87.591797 C 43.422337 86.781968 42.95112 86.072214 42.34375 85.464844 C 41.73638 84.857474 41.026626 84.386257 40.216797 84.048828 C 39.40697 83.694528 38.539255 83.517578 37.611328 83.517578 z M 77.917969 83.542969 C 77.006914 83.542969 76.14772 83.719918 75.337891 84.074219 C 74.528064 84.411647 73.818305 84.882864 73.210938 85.490234 C 72.603565 86.097604 72.123829 86.807358 71.769531 87.617188 C 71.432103 88.427011 71.261719 89.286208 71.261719 90.197266 C 71.261719 91.125193 71.432103 91.994861 71.769531 92.804688 C 72.123829 93.614514 72.603565 94.322317 73.210938 94.929688 C 73.818305 95.537055 74.528064 96.018746 75.337891 96.373047 C 75.588733 96.477565 75.844914 96.558716 76.105469 96.630859 L 76.105469 97.082031 A 0.50005063 0.50005063 0 0 0 76.607422 97.583984 L 77.449219 97.583984 C 77.703997 97.634252 77.913291 97.82038 77.980469 98.085938 C 78.05897 98.396158 77.931559 98.699065 77.648438 98.853516 C 77.365086 99.008098 77.040889 98.95492 76.822266 98.720703 A 0.50005063 0.50005063 0 0 0 76.113281 98.699219 L 75.316406 99.445312 A 0.50005063 0.50005063 0 0 0 75.287109 100.14648 C 76.149787 101.07056 77.535599 101.29051 78.644531 100.68555 C 79.754544 100.07999 80.328055 98.789792 80.017578 97.5625 C 79.932249 97.225194 79.764935 96.939606 79.564453 96.681641 C 80.029027 96.568192 80.476861 96.409031 80.904297 96.195312 C 81.815355 95.722915 82.574271 95.098349 83.181641 94.322266 L 81.132812 92.728516 C 80.761643 93.200914 80.296989 93.580372 79.740234 93.867188 C 79.183477 94.153998 78.575954 94.296875 77.917969 94.296875 C 77.361212 94.296875 76.83036 94.188089 76.324219 93.96875 C 75.834949 93.749421 75.404375 93.453204 75.033203 93.082031 C 74.662043 92.710861 74.367773 92.282239 74.148438 91.792969 C 73.945981 91.286824 73.84375 90.75402 73.84375 90.197266 C 73.84375 89.640508 73.945981 89.118179 74.148438 88.628906 C 74.367763 88.122765 74.662033 87.68367 75.033203 87.3125 C 75.404375 86.941328 75.834949 86.655582 76.324219 86.453125 C 76.83036 86.233786 77.361212 86.123047 77.917969 86.123047 C 78.575954 86.123047 79.183477 86.267874 79.740234 86.554688 C 80.296989 86.824628 80.761643 87.204089 81.132812 87.693359 L 83.181641 86.097656 C 82.574271 85.304701 81.815355 84.680138 80.904297 84.224609 C 79.993242 83.769081 78.997739 83.542969 77.917969 83.542969 z M 93.556641 83.542969 C 92.628711 83.542969 91.750527 83.719918 90.923828 84.074219 C 90.114001 84.428519 89.406201 84.908255 88.798828 85.515625 C 88.191458 86.122995 87.709769 86.84127 87.355469 87.667969 C 87.001171 88.49467 86.824219 89.370901 86.824219 90.298828 C 86.824219 91.226755 87.001171 92.104942 87.355469 92.931641 C 87.709769 93.74147 88.191458 94.449271 88.798828 95.056641 C 89.406201 95.664011 90.114001 96.1457 90.923828 96.5 C 91.750527 96.8543 92.628711 97.03125 93.556641 97.03125 C 94.349596 97.03125 95.091474 96.903463 95.783203 96.650391 C 96.47493 96.397318 97.108012 96.051936 97.681641 95.613281 L 97.681641 96.853516 L 100.3125 96.853516 L 100.3125 90.298828 C 100.3125 89.370901 100.13555 88.49467 99.78125 87.667969 C 99.426952 86.84127 98.938695 86.122995 98.314453 85.515625 C 97.707081 84.908255 96.988808 84.428519 96.162109 84.074219 C 95.352283 83.719918 94.484568 83.542969 93.556641 83.542969 z M 22.919922 83.568359 C 22.363167 83.551477 21.838882 83.634715 21.349609 83.820312 C 20.860339 84.005897 20.429766 84.259521 20.058594 84.580078 C 19.704306 84.900635 19.418557 85.280093 19.199219 85.71875 C 18.979905 86.157404 18.862585 86.630574 18.845703 87.136719 C 18.828821 87.64286 18.92059 88.122596 19.123047 88.578125 C 19.325504 89.016782 19.604684 89.404761 19.958984 89.742188 L 20.035156 89.818359 L 20.035156 89.84375 C 20.288228 90.063073 20.556937 90.257063 20.84375 90.425781 C 21.130566 90.57763 21.418265 90.729023 21.705078 90.880859 C 22.008763 91.015824 22.303031 91.15213 22.589844 91.287109 C 22.876665 91.405199 23.138805 91.531036 23.375 91.666016 L 23.349609 91.691406 C 23.450825 91.725145 23.527505 91.75923 23.578125 91.792969 C 23.898684 91.978554 24.116277 92.213187 24.234375 92.5 C 24.251257 92.533739 24.259766 92.567827 24.259766 92.601562 C 24.259766 92.618444 24.268274 92.643996 24.285156 92.677734 L 24.285156 92.728516 C 24.302038 92.779136 24.310547 92.864324 24.310547 92.982422 C 24.310547 93.370463 24.142113 93.698806 23.804688 93.96875 C 23.484131 94.221827 23.104673 94.339148 22.666016 94.322266 C 22.277974 94.322266 21.941113 94.221988 21.654297 94.019531 C 21.367486 93.800203 21.182015 93.538063 21.097656 93.234375 L 18.919922 94.753906 C 19.257351 95.39502 19.747558 95.908833 20.388672 96.296875 C 21.046657 96.684922 21.780017 96.895949 22.589844 96.929688 C 23.163473 96.946541 23.711361 96.861356 24.234375 96.675781 C 24.757389 96.473325 25.213521 96.196097 25.601562 95.841797 C 25.989609 95.487496 26.30287 95.073961 26.539062 94.601562 C 26.77525 94.129165 26.901087 93.615348 26.917969 93.058594 C 26.934851 92.619937 26.875214 92.206403 26.740234 91.818359 C 26.60526 91.413446 26.419789 91.040554 26.183594 90.703125 C 25.98114 90.450048 25.795671 90.249492 25.626953 90.097656 L 25.5 89.970703 C 25.196315 89.717641 24.893529 89.523651 24.589844 89.388672 C 24.168059 89.152461 23.746004 88.941434 23.324219 88.755859 C 22.919305 88.55339 22.556885 88.359403 22.236328 88.173828 C 22.033879 88.089469 21.865448 87.97873 21.730469 87.84375 C 21.595489 87.708793 21.510301 87.548881 21.476562 87.363281 C 21.459684 87.329543 21.451172 87.269906 21.451172 87.185547 C 21.451172 86.898734 21.585527 86.655582 21.855469 86.453125 C 22.142282 86.250668 22.481097 86.156946 22.869141 86.173828 C 23.155944 86.173828 23.407615 86.241974 23.626953 86.376953 C 23.863166 86.511935 24.03355 86.671847 24.134766 86.857422 L 26.259766 85.388672 C 25.922339 84.848787 25.457685 84.420166 24.867188 84.099609 C 24.293561 83.779047 23.645395 83.602098 22.919922 83.568359 z M 55.693359 83.568359 L 55.693359 91.134766 C 55.693359 92.147049 55.92799 93.074398 56.400391 93.917969 C 56.872789 94.761539 57.497352 95.445736 58.273438 95.96875 C 58.745835 96.272433 59.253086 96.507063 59.792969 96.675781 C 60.332854 96.844499 60.89778 96.929688 61.488281 96.929688 C 62.07878 96.929688 62.643708 96.844499 63.183594 96.675781 C 63.723479 96.507066 64.228771 96.272435 64.701172 95.96875 C 65.494127 95.445736 66.11869 94.761539 66.574219 93.917969 C 67.046619 93.074398 67.283203 92.147049 67.283203 91.134766 L 67.283203 83.568359 L 64.701172 83.568359 L 64.701172 86.300781 L 64.701172 91.134766 C 64.701172 91.573423 64.617937 91.986958 64.449219 92.375 C 64.280506 92.763042 64.043919 93.099903 63.740234 93.386719 C 63.453419 93.673527 63.116557 93.901597 62.728516 94.070312 C 62.340474 94.239031 61.926938 94.322266 61.488281 94.322266 C 61.049624 94.322266 60.62757 94.239031 60.222656 94.070312 C 59.834612 93.901602 59.497748 93.673532 59.210938 93.386719 C 58.924127 93.099903 58.696062 92.763042 58.527344 92.375 C 58.358626 91.986958 58.273437 91.573423 58.273438 91.134766 L 58.273438 86.300781 L 58.273438 83.568359 L 55.693359 83.568359 z M 37.611328 86.123047 C 38.168085 86.123047 38.690418 86.233786 39.179688 86.453125 C 39.685826 86.655582 40.124921 86.941328 40.496094 87.3125 C 40.867264 87.68367 41.153012 88.122765 41.355469 88.628906 C 41.574807 89.118179 41.685547 89.640508 41.685547 90.197266 C 41.685547 90.75402 41.574807 91.286824 41.355469 91.792969 C 41.153012 92.282239 40.867264 92.710861 40.496094 93.082031 C 40.124921 93.453193 39.685826 93.749411 39.179688 93.96875 C 38.690418 94.171207 38.168085 94.271484 37.611328 94.271484 C 37.054571 94.271484 36.521767 94.171207 36.015625 93.96875 C 35.526353 93.749421 35.095779 93.453204 34.724609 93.082031 C 34.353447 92.710861 34.059182 92.282239 33.839844 91.792969 C 33.620505 91.286824 33.509766 90.75402 33.509766 90.197266 C 33.509766 89.640508 33.620505 89.118179 33.839844 88.628906 C 34.059172 88.122765 34.353437 87.68367 34.724609 87.3125 C 35.095779 86.941328 35.526353 86.655582 36.015625 86.453125 C 36.521767 86.233786 37.054571 86.123047 37.611328 86.123047 z M 93.556641 86.173828 C 94.130267 86.173828 94.661118 86.284568 95.150391 86.503906 C 95.656532 86.723235 96.095627 87.017502 96.466797 87.388672 C 96.837959 87.759844 97.132227 88.198936 97.351562 88.705078 C 97.570901 89.194348 97.681641 89.725199 97.681641 90.298828 C 97.681641 90.855585 97.570901 91.386436 97.351562 91.892578 C 97.132237 92.381848 96.837969 92.812421 96.466797 93.183594 C 96.095627 93.554753 95.656532 93.850977 95.150391 94.070312 C 94.661118 94.289651 94.130267 94.398438 93.556641 94.398438 C 92.983012 94.398437 92.441689 94.289651 91.935547 94.070312 C 91.446274 93.850987 91.015701 93.554764 90.644531 93.183594 C 90.273369 92.812421 89.979104 92.381848 89.759766 91.892578 C 89.540427 91.386436 89.431641 90.855585 89.431641 90.298828 C 89.431641 89.725199 89.540427 89.194348 89.759766 88.705078 C 89.979094 88.198936 90.273359 87.759844 90.644531 87.388672 C 91.015701 87.017512 91.446274 86.723245 91.935547 86.503906 C 92.441689 86.284568 92.983012 86.173828 93.556641 86.173828 z M 115.4707 87.664062 L 113.09375 88.787109 C 113.60689 89.877696 113.61217 91.136621 113.10156 92.228516 L 115.47852 93.341797 C 116.31888 91.54408 116.31536 89.459693 115.4707 87.664062 z "
       transform="matrix(0.26458333,0,0,0.26458333,19.09413,-101.19159)"
       id="path938" />
    <path
       style="font-style:normal;font-variant:normal;font-weight:normal;font-stretch:normal;font-size:6.69586134px;line-height:125%;font-family:'Aqua Grotesque';-inkscape-font-specification:'Aqua Grotesque, Normal';font-variant-ligatures:normal;font-variant-caps:normal;font-variant-numeric:normal;font-feature-settings:normal;text-align:center;letter-spacing:0px;word-spacing:0px;writing-mode:lr-tb;text-anchor:middle;fill:#f2ff00;fill-opacity:1;stroke:none;stroke-width:0.1210876px;stroke-linecap:butt;stroke-linejoin:miter;stroke-opacity:1"
       d="M 158.68555 75.169922 L 158.68555 80.15625 L 156.23047 80.15625 L 156.23047 82.736328 L 158.68555 82.736328 L 158.68555 97.212891 L 161.29297 97.212891 L 161.29297 82.736328 L 163.72266 82.736328 L 163.72266 80.15625 L 161.29297 80.15625 L 161.29297 75.169922 L 158.68555 75.169922 z M 132.07031 79.876953 L 132.07031 82.458984 L 134.65234 82.458984 L 134.65234 79.876953 L 132.07031 79.876953 z M 168.10352 79.876953 L 168.10352 82.458984 L 170.68359 82.458984 L 170.68359 79.876953 L 168.10352 79.876953 z M 132.07031 83.824219 L 132.07031 97.1875 L 134.65234 97.1875 L 134.65234 83.824219 L 132.07031 83.824219 z M 168.10352 83.824219 L 168.10352 97.1875 L 170.68359 97.1875 L 170.68359 83.824219 L 168.10352 83.824219 z M 109.40625 83.849609 C 108.49519 83.849609 107.63405 84.026559 106.82422 84.380859 C 106.01439 84.718288 105.30659 85.191456 104.69922 85.798828 C 104.09185 86.406201 103.61016 87.113999 103.25586 87.923828 C 102.91843 88.73366 102.75 89.594802 102.75 90.505859 C 102.75 91.433791 102.91843 92.303452 103.25586 93.113281 C 103.61016 93.923111 104.09185 94.630909 104.69922 95.238281 C 105.30659 95.845654 106.01439 96.32734 106.82422 96.681641 C 107.63405 97.019072 108.49519 97.1875 109.40625 97.1875 C 110.48602 97.1875 111.48152 96.959438 112.39258 96.503906 C 113.30364 96.031506 114.06255 95.406945 114.66992 94.630859 L 112.61914 93.037109 C 112.24797 93.50951 111.78527 93.888966 111.22852 94.175781 C 110.67176 94.462597 110.06424 94.605469 109.40625 94.605469 C 108.84949 94.605469 108.31669 94.496682 107.81055 94.277344 C 107.32128 94.058013 106.89266 93.761797 106.52148 93.390625 C 106.15032 93.019453 105.8541 92.588882 105.63477 92.099609 C 105.43231 91.593468 105.33203 91.062619 105.33203 90.505859 C 105.33203 89.949102 105.43231 89.426772 105.63477 88.9375 C 105.8541 88.431356 106.15031 87.992266 106.52148 87.621094 C 106.89266 87.249921 107.32128 86.962222 107.81055 86.759766 C 108.31669 86.540427 108.84949 86.431641 109.40625 86.431641 C 110.06424 86.431641 110.67176 86.574515 111.22852 86.861328 C 111.78527 87.131272 112.24797 87.510728 112.61914 88 L 114.66992 86.40625 C 114.06255 85.61329 113.30364 84.988732 112.39258 84.533203 C 111.48152 84.077674 110.48602 83.849609 109.40625 83.849609 z M 145.45703 83.849609 C 144.5291 83.849609 143.65092 84.026559 142.82422 84.380859 C 142.01439 84.73516 141.30659 85.216846 140.69922 85.824219 C 140.09185 86.431591 139.61016 87.147908 139.25586 87.974609 C 138.90156 88.80131 138.72461 89.67949 138.72461 90.607422 C 138.72461 91.535351 138.90156 92.413533 139.25586 93.240234 C 139.61016 94.050066 140.09185 94.757862 140.69922 95.365234 C 141.30659 95.972607 142.01439 96.454293 142.82422 96.808594 C 143.65092 97.162894 144.5291 97.339844 145.45703 97.339844 C 146.24999 97.339844 146.99186 97.212057 147.68359 96.958984 C 148.37532 96.705912 149.0084 96.360532 149.58203 95.921875 L 149.58203 97.162109 L 152.21484 97.162109 L 152.21484 90.607422 C 152.21484 89.67949 152.03594 88.80131 151.68164 87.974609 C 151.32734 87.147908 150.83909 86.431591 150.21484 85.824219 C 149.60747 85.216846 148.89115 84.73516 148.06445 84.380859 C 147.25462 84.026559 146.38496 83.849609 145.45703 83.849609 z M 197.10938 83.849609 C 196.18145 83.849609 195.30327 84.026559 194.47656 84.380859 C 193.66673 84.73516 192.95894 85.216846 192.35156 85.824219 C 191.74419 86.431591 191.2625 87.147908 190.9082 87.974609 C 190.5539 88.80131 190.37695 89.67949 190.37695 90.607422 C 190.37695 91.535351 190.5539 92.413533 190.9082 93.240234 C 191.2625 94.050066 191.74419 94.757862 192.35156 95.365234 C 192.95894 95.972607 193.66673 96.454293 194.47656 96.808594 C 195.30327 97.162894 196.18145 97.339844 197.10938 97.339844 C 197.90232 97.339844 198.64421 97.212057 199.33594 96.958984 C 200.02767 96.705912 200.66075 96.360532 201.23438 95.921875 L 201.23438 97.162109 L 203.86719 97.162109 L 203.86719 90.607422 C 203.86719 89.67949 203.68828 88.80131 203.33398 87.974609 C 202.97968 87.147908 202.49143 86.431591 201.86719 85.824219 C 201.25981 85.216846 200.5435 84.73516 199.7168 84.380859 C 198.90697 84.026559 198.03729 83.849609 197.10938 83.849609 z M 118.66602 83.875 L 118.66602 89.646484 L 118.66602 97.162109 L 121.24609 97.162109 L 121.24609 94.453125 L 121.24609 89.646484 C 121.24609 89.207827 121.33128 88.794294 121.5 88.40625 C 121.66871 88.018206 121.89678 87.679394 122.18359 87.392578 C 122.47041 87.105767 122.80727 86.879655 123.19531 86.710938 C 123.58335 86.542219 123.99689 86.457031 124.43555 86.457031 C 124.97543 86.457031 125.47416 86.582865 125.92969 86.835938 C 126.40209 87.089009 126.78155 87.427822 127.06836 87.849609 L 127.625 87.392578 L 129.0918 86.228516 C 128.68688 85.671756 128.19863 85.209063 127.625 84.837891 C 127.16947 84.534208 126.67075 84.297624 126.13086 84.128906 C 125.59097 83.960188 125.02605 83.875 124.43555 83.875 C 123.84505 83.875 123.28012 83.960188 122.74023 84.128906 C 122.20035 84.297622 121.70162 84.534206 121.24609 84.837891 L 121.24609 83.875 L 118.66602 83.875 z M 175.11328 83.875 L 179.51562 93.972656 L 180.93359 97.212891 L 182.34961 93.972656 L 186.75391 83.875 L 183.94531 83.875 L 180.93359 90.759766 L 177.92188 83.875 L 175.11328 83.875 z M 145.45703 86.482422 C 146.03066 86.482422 146.56151 86.591208 147.05078 86.810547 C 147.55693 87.029878 147.99602 87.326093 148.36719 87.697266 C 148.73835 88.068438 149.03457 88.50753 149.25391 89.013672 C 149.47324 89.502944 149.58203 90.03379 149.58203 90.607422 C 149.58203 91.164179 149.47324 91.695028 149.25391 92.201172 C 149.03458 92.690444 148.73836 93.121015 148.36719 93.492188 C 147.99602 93.863349 147.55693 94.159568 147.05078 94.378906 C 146.56151 94.598245 146.03066 94.707031 145.45703 94.707031 C 144.8834 94.707031 144.34403 94.598245 143.83789 94.378906 C 143.34862 94.159578 142.91804 93.863359 142.54688 93.492188 C 142.17571 93.121015 141.87949 92.690444 141.66016 92.201172 C 141.44082 91.695028 141.33203 91.164179 141.33203 90.607422 C 141.33203 90.03379 141.44082 89.502944 141.66016 89.013672 C 141.87948 88.50753 142.1757 88.068438 142.54688 87.697266 C 142.91804 87.326101 143.34862 87.029885 143.83789 86.810547 C 144.34403 86.591208 144.8834 86.482422 145.45703 86.482422 z M 197.10938 86.482422 C 197.68299 86.482422 198.21386 86.591208 198.70312 86.810547 C 199.20927 87.029878 199.64836 87.326093 200.01953 87.697266 C 200.39069 88.068438 200.68691 88.50753 200.90625 89.013672 C 201.12559 89.502944 201.23437 90.03379 201.23438 90.607422 C 201.23437 91.164179 201.12559 91.695028 200.90625 92.201172 C 200.68692 92.690444 200.3907 93.121015 200.01953 93.492188 C 199.64836 93.863349 199.20927 94.159568 198.70312 94.378906 C 198.21386 94.598245 197.68299 94.707031 197.10938 94.707031 C 196.53575 94.707031 195.99638 94.598245 195.49023 94.378906 C 195.00096 94.159578 194.57039 93.863359 194.19922 93.492188 C 193.82806 93.121015 193.53184 92.690444 193.3125 92.201172 C 193.09316 91.695028 192.98437 91.164179 192.98438 90.607422 C 192.98438 90.03379 193.09316 89.502944 193.3125 89.013672 C 193.53183 88.50753 193.82805 88.068438 194.19922 87.697266 C 194.57039 87.326101 195.00096 87.029885 195.49023 86.810547 C 195.99638 86.591208 196.53575 86.482422 197.10938 86.482422 z "
       transform="matrix(0.26458333,0,0,0.26458333,19.09413,-101.19159)"
       id="path877" />
  </g>
</svg>
