<?xml version="1.0" encoding="UTF-8" standalone="no"?>
<!-- Created with Inkscape (http://www.inkscape.org/) -->

<svg
   xmlns:dc="http://purl.org/dc/elements/1.1/"
   xmlns:cc="http://creativecommons.org/ns#"
   xmlns:rdf="http://www.w3.org/1999/02/22-rdf-syntax-ns#"
   xmlns:svg="http://www.w3.org/2000/svg"
   xmlns="http://www.w3.org/2000/svg"
   xmlns:sodipodi="http://sodipodi.sourceforge.net/DTD/sodipodi-0.dtd"
   xmlns:inkscape="http://www.inkscape.org/namespaces/inkscape"
   width="1216.2236"
   height="857.01343"
   viewBox="0 0 321.7925 226.75147"
   version="1.1"
   id="svg8"
   inkscape:version="0.92.3 (2405546, 2018-03-11)"
   sodipodi:docname="logo_colors.svg"
   inkscape:export-filename="/media/brunolgb/Seagate Expansion Drive/DESIGN/MINHA/logo/logo-alpha-colored.png"
   inkscape:export-xdpi="112"
   inkscape:export-ydpi="112">
  <defs
     id="defs2" />
  <sodipodi:namedview
     id="base"
     pagecolor="#ffffff"
     bordercolor="#666666"
     borderopacity="1.0"
     inkscape:pageopacity="0.0"
     inkscape:pageshadow="2"
     inkscape:zoom="0.35355339"
     inkscape:cx="554.9679"
     inkscape:cy="286.47081"
     inkscape:document-units="px"
     inkscape:current-layer="layer1"
     showgrid="false"
     inkscape:snap-global="false"
     units="px"
     showborder="true"
     inkscape:window-width="1280"
     inkscape:window-height="710"
     inkscape:window-x="0"
     inkscape:window-y="25"
     inkscape:window-maximized="1"
     showguides="true"
     inkscape:snap-bbox="true"
     inkscape:bbox-paths="true"
     inkscape:bbox-nodes="true"
     inkscape:snap-bbox-edge-midpoints="true"
     inkscape:snap-bbox-midpoints="true"
     inkscape:object-paths="true"
     inkscape:snap-intersection-paths="true"
     inkscape:snap-smooth-nodes="true"
     inkscape:snap-midpoints="true"
     inkscape:snap-object-midpoints="true"
     inkscape:snap-center="true"
     inkscape:guide-bbox="true"
     fit-margin-top="0"
     fit-margin-left="0"
     fit-margin-right="0"
     fit-margin-bottom="0"
     inkscape:showpageshadow="false">
    <sodipodi:guide
       position="-515.69433,-212.99066"
       orientation="1,0"
       id="guide967"
       inkscape:locked="false" />
  </sodipodi:namedview>
  <metadata
     id="metadata5">
    <rdf:RDF>
      <cc:Work
         rdf:about="">
        <dc:format>image/svg+xml</dc:format>
        <dc:type
           rdf:resource="http://purl.org/dc/dcmitype/StillImage" />
        <dc:title></dc:title>
      </cc:Work>
    </rdf:RDF>
  </metadata>
  <g
     inkscape:label="Camada 1"
     inkscape:groupmode="layer"
     id="layer1"
     transform="translate(-159.85043,256.89539)">
    <g
       id="g1525"
       transform="matrix(2.8744259,0,0,2.8744259,-222.13023,-616.37966)">
      <path
         inkscape:connector-curvature="0"
         id="path1475"
         transform="scale(0.26458333)"
         d="m 716.46289,495.21875 -59.95508,40.44531 c 0.36284,15.72809 0.75716,31.83039 1.11524,47.5586 3.41378,2.27418 6.82184,4.2089 10.22851,6.5039 l -10.32617,7.26563 0.0586,16.61719 0.008,1.0039 h 0.0293 0.0234 0.004 l -0.0274,0.0176 v -0.002 l -0.004,0.002 13.58789,8.98242 44.52148,-30.46094 43.94532,30.1875 13.375,-9.04492 h 0.0117 v -0.008 l 0.0254,-0.0176 -0.0215,-0.0156 v -0.004 l 0.0234,-0.81836 0.004,-0.13672 0.51758,-16.89648 -32.32031,-22.20117 31.80078,-21.91016 v -0.041 h 0.0293 l 0.0312,-1.0039 0.51758,-16.7793 z m -0.008,2.41992 55.17969,37.86328 -0.47852,15.45899 -41.3418,-28.39649 V 568.75 l 7.82032,5.37109 v 0.002 l 0.82617,0.56836 1.05859,0.72851 32.05664,22.01563 -0.47656,15.47265 -50.74414,-34.85742 -4.62305,-3.17578 v -2.57422 -13.22461 -46.18359 l -0.002,-0.002 -44.03125,30.12305 v 14.39258 l 41.94922,-28.70313 v 47.59376 l -8.86524,6.06445 v 0.004 l -45.19922,30.92188 -0.0566,-15.26172 10.09961,-7.10351 15.77539,-11.09571 14.17774,-9.70117 v -15.99609 l -39.99414,27.36328 -0.20703,-8.85742 -0.8418,-35.92383 z m 56.57226,54.60938 h 0.0586 v 0.0371 z m -115.40625,30.51562 0.002,0.0684 -0.002,0.004 z"
         style="opacity:1;fill:#31005f;fill-opacity:1;stroke:none;stroke-width:1.13598001;stroke-linecap:square;stroke-linejoin:miter;stroke-miterlimit:4;stroke-dasharray:none;stroke-dashoffset:0;stroke-opacity:1;paint-order:fill markers stroke" />
      <path
         id="path1477"
         d="m 189.56206,131.66667 -15.32414,10.33787 0.27752,11.84836 10.58177,-7.23987 v 4.2323 l -3.75118,2.56678 -6.84609,4.8152 0.015,4.03799 14.30454,-9.78699 v -12.5925 l -11.09906,7.59437 v -3.80805 l 11.64995,-7.97004 5e-4,5e-4 v 12.21941 3.49901 0.68109 l 14.64923,10.06295 0.1261,-4.09379 -8.76173,-6.01773 -0.2186,-0.15037 v -5.3e-4 l -2.06911,-1.4211 v -12.21991 l 10.93834,7.51324 0.12661,-4.0902 z m 14.96808,14.44873 0.0155,0.0103 v -0.01 z m -30.53458,8.07392 v 0.0191 l 5.3e-4,-5.3e-4 z m 30.55008,8.11424 -0.006,0.21754 0.006,0.005 z m -30.55008,0.31263 v 0.005 l 0.007,-0.005 z"
         style="opacity:1;fill:white;fill-opacity:1;stroke:none;stroke-width:0.30056137;stroke-linecap:square;stroke-linejoin:miter;stroke-miterlimit:4;stroke-dasharray:none;stroke-dashoffset:0;stroke-opacity:1;paint-order:fill markers stroke"
         inkscape:connector-curvature="0" />
    </g>
    <path
       style="font-style:normal;font-variant:normal;font-weight:600;font-stretch:normal;font-size:30.42100716px;line-height:1.25;font-family:'URW Gothic L';-inkscape-font-specification:'URW Gothic L, Semi-Bold';font-variant-ligatures:normal;font-variant-caps:normal;font-variant-numeric:normal;font-feature-settings:normal;text-align:start;letter-spacing:0px;word-spacing:0px;writing-mode:lr-tb;text-anchor:start;fill:white;fill-opacity:1;stroke:none;stroke-width:2.87442589"
       d="M 481.58203 552.49805 C 479.16752 555.25748 476.86832 556.40625 473.87891 556.40625 C 472.38422 556.40625 470.77415 556.06225 468.47461 555.14258 C 465.14027 553.76286 463.99069 553.53125 461.57617 553.53125 C 456.74711 553.53125 453.75664 554.91137 449.73242 558.93555 L 455.94141 568.13477 C 460.31054 565.60528 461.11579 565.25977 463.99023 565.25977 C 465.82984 565.25977 466.97985 565.48875 470.19922 566.63867 C 473.18864 567.67347 475.25779 568.13477 476.98242 568.13477 C 481.00664 568.13477 484.11172 566.29465 487.79102 561.81055 L 481.58203 552.49805 z M 85.513672 574.91797 C 71.831404 574.91797 60.794922 585.61019 60.794922 599.0625 C 60.794922 609.75536 67.117272 617.91968 78.5 622.17383 C 89.88269 626.42798 90.572337 626.77195 93.216797 628.72656 C 95.746321 630.79615 97.126953 633.78532 97.126953 637.34961 C 97.126953 643.44339 92.412554 647.69922 85.628906 647.69922 C 78.615313 647.69922 74.820699 644.24967 74.130859 637.12109 L 57.689453 637.12109 C 58.264357 643.78976 59.759674 648.04324 63.208984 652.52734 C 68.267995 659.08103 76.660692 662.875 85.628906 662.875 C 100.92084 662.875 112.76367 651.03192 112.76367 635.625 C 112.76367 628.6114 110.11978 622.519 105.17578 617.91992 C 101.84144 614.81554 99.081109 613.31923 90.802734 610.21484 C 82.754344 607.22544 82.52477 607.11174 81.375 606.42188 C 78.270609 604.46727 76.660156 601.82313 76.660156 598.71875 C 76.660156 593.65976 80.224453 590.0957 85.398438 590.0957 C 90.687357 590.0957 93.907295 593.31365 94.367188 599.0625 L 110.69336 599.0625 C 110.34829 592.62379 108.85556 588.25416 105.40625 584 C 100.80717 578.25115 93.447089 574.91797 85.513672 574.91797 z M 164.10547 574.91797 C 138.81049 574.91797 119.26367 594.11808 119.26367 618.95312 C 119.26367 643.44323 139.04025 662.875 163.99023 662.875 C 188.71031 662.875 207.79688 643.67488 207.79688 618.83984 C 207.79688 594.57969 188.36561 574.91797 164.10547 574.91797 z M 383.70117 574.91797 C 359.67097 574.91797 340.00977 594.57917 340.00977 618.60938 C 340.00977 639.9951 356.10661 659.08116 376.6875 662.18555 L 372.89453 673.68359 L 378.98828 676.67188 C 380.48297 674.37233 381.74776 673.56836 383.35742 673.56836 C 385.77194 673.56836 387.8418 675.8675 387.8418 678.62695 C 387.8418 681.50138 385.77194 683.91602 383.35742 683.91602 C 381.28787 683.91602 379.90807 682.76634 378.98828 680.4668 L 371.85938 680.4668 C 372.7792 686.21565 377.49386 690.24023 383.47266 690.24023 C 390.02636 690.24023 394.50977 685.64107 394.50977 678.85742 C 394.50977 672.53368 389.68049 667.24414 383.93164 667.24414 C 382.89684 667.24414 382.20732 667.47394 380.59766 668.04883 L 382.4375 662.875 C 401.06377 663.44989 416.81479 653.90707 423.94336 637.69531 L 405.43164 637.69531 C 398.53302 644.93886 392.55594 647.69922 384.39258 647.69922 C 368.75573 647.69922 355.87695 634.59144 355.87695 618.72461 C 355.87695 611.82599 358.52153 604.46719 362.89062 599.4082 C 368.06461 593.31442 375.42358 590.0957 384.04688 590.0957 C 393.93491 590.0957 400.60271 593.3136 406.35156 600.78711 L 423.94336 600.78711 C 420.60902 593.42858 417.61994 589.40546 411.87109 584.69141 C 404.05265 578.36765 394.0491 574.91797 383.70117 574.91797 z M 559.5625 574.91797 C 534.26752 574.91797 514.72266 594.11808 514.72266 618.95312 C 514.72266 643.44323 534.49724 662.875 559.44727 662.875 C 584.1673 662.875 603.25391 643.67488 603.25391 618.83984 C 603.25391 594.57969 583.82264 574.91797 559.5625 574.91797 z M 687.08789 574.91797 C 663.05769 574.91797 643.39648 594.57917 643.39648 618.60938 C 643.39648 643.09948 663.28804 662.875 688.12305 662.875 C 705.48461 662.875 720.6614 653.21721 727.33008 637.69531 L 708.81836 637.69531 C 701.91974 644.93886 695.94266 647.69922 687.7793 647.69922 C 672.14241 647.69922 659.26367 634.59144 659.26367 618.72461 C 659.26367 611.82599 661.90825 604.46719 666.27734 599.4082 C 671.45133 593.31442 678.8103 590.0957 687.43359 590.0957 C 697.32163 590.0957 703.98943 593.3136 709.73828 600.78711 L 727.33008 600.78711 C 723.99574 593.42858 721.00666 589.40546 715.25781 584.69141 C 707.43937 578.36765 697.43582 574.91797 687.08789 574.91797 z M 220.19531 576.41211 L 220.19531 661.38086 L 261.93164 661.38086 L 261.93164 646.31836 L 235.94727 646.31836 L 235.94727 576.41211 L 220.19531 576.41211 z M 270.72266 576.41211 L 270.72266 630.22266 C 270.72266 639.30584 272.1029 645.05455 275.32227 650.22852 C 280.26627 658.04695 289.46356 662.875 299.35156 662.875 C 308.54972 662.875 317.28868 658.73677 322.34766 651.95312 C 326.48684 646.43423 328.0957 640.11068 328.0957 630.22266 L 328.0957 576.41211 L 312.34375 576.41211 L 312.34375 630.22266 C 312.34375 636.54639 311.88505 639.18977 310.27539 641.94922 C 308.09082 645.51351 303.9509 647.69922 299.4668 647.69922 C 294.86772 647.69922 290.72949 645.51351 288.54492 641.94922 C 286.93522 639.18977 286.47461 636.54639 286.47461 630.22266 L 286.47461 576.41211 L 270.72266 576.41211 z M 462.38086 576.41211 L 426.9668 661.38086 L 444.32812 661.38086 L 453.75781 639.41992 L 483.99609 639.41992 L 493.08008 661.38086 L 510.44141 661.38086 L 474.79688 576.41211 L 462.38086 576.41211 z M 737.36719 576.41211 L 737.36719 661.38086 L 753.11914 661.38086 L 753.11914 628.8418 L 775.42578 661.38086 L 794.85547 661.38086 L 771.86133 629.99219 C 778.41503 628.38251 781.63324 626.88758 785.3125 623.7832 C 791.06135 618.83919 794.05078 612.05543 794.05078 603.66211 C 794.05078 595.03883 790.94781 587.68037 785.08398 582.73633 C 779.56508 578.02227 773.4701 576.41211 761.85742 576.41211 L 737.36719 576.41211 z M 804.0625 576.41211 L 804.0625 661.38086 L 819.81445 661.38086 L 819.81445 576.41211 L 804.0625 576.41211 z M 864.57617 576.41211 L 829.16211 661.38086 L 846.52344 661.38086 L 855.95117 639.41992 L 886.19141 639.41992 L 895.27344 661.38086 L 912.63477 661.38086 L 876.99219 576.41211 L 864.57617 576.41211 z M 914.27148 576.41211 L 914.27148 591.47461 L 930.02344 591.47461 L 930.02344 661.38086 L 945.77539 661.38086 L 945.77539 591.47461 L 961.52734 591.47461 L 961.52734 576.41211 L 914.27148 576.41211 z M 969.56641 576.41211 L 969.56641 661.38086 L 985.31836 661.38086 L 985.31836 576.41211 L 969.56641 576.41211 z M 994.78125 576.41211 L 1027.8945 661.38086 L 1040.7715 661.38086 L 1073.6562 576.41211 L 1057.0996 576.41211 L 1034.2188 641.0293 L 1011.3379 576.41211 L 994.78125 576.41211 z M 1110.4727 576.41211 L 1075.0605 661.38086 L 1092.4219 661.38086 L 1101.8496 639.41992 L 1132.0898 639.41992 L 1141.1719 661.38086 L 1158.5332 661.38086 L 1122.8906 576.41211 L 1110.4727 576.41211 z M 163.875 590.0957 C 179.62686 590.0957 191.92969 602.74162 191.92969 619.06836 C 191.92969 635.3951 179.97178 647.69922 163.875 647.69922 C 147.77822 647.69922 135.13086 635.04991 135.13086 618.95312 C 135.13086 602.51141 147.54827 590.0957 163.875 590.0957 z M 559.33203 590.0957 C 575.08389 590.0957 587.38672 602.74162 587.38672 619.06836 C 587.38672 635.3951 575.42885 647.69922 559.33203 647.69922 C 543.23525 647.69922 530.58789 635.04991 530.58789 618.95312 C 530.58789 602.51141 543.0053 590.0957 559.33203 590.0957 z M 753.11914 591.47461 L 760.13281 591.47461 C 767.49136 591.47461 771.51544 592.2803 774.04492 594.46484 C 776.80439 596.64941 778.18359 599.98192 778.18359 604.12109 C 778.18359 613.0893 773.00981 617 760.82227 617 L 753.11914 617 L 753.11914 591.47461 z M 468.58984 598.60352 L 477.67188 624.35742 L 459.50586 624.35742 L 468.58984 598.60352 z M 870.7832 598.60352 L 879.86719 624.35742 L 861.70117 624.35742 L 870.7832 598.60352 z M 1116.6816 598.60352 L 1125.7656 624.35742 L 1107.5996 624.35742 L 1116.6816 598.60352 z M 96.4375 748.87891 L 96.4375 791.47461 L 100.70312 791.47461 L 100.70312 771.99219 L 117.41797 771.99219 L 117.41797 768.13086 L 100.70312 768.13086 L 100.70312 752.74023 L 118.05273 752.74023 L 118.05273 748.87891 L 96.4375 748.87891 z M 236.23828 748.87891 L 236.23828 756.14062 L 240.50391 756.14062 L 240.50391 748.87891 L 236.23828 748.87891 z M 259.70898 748.87891 L 259.70898 791.47461 L 263.97461 791.47461 L 263.97461 748.87891 L 259.70898 748.87891 z M 283.17969 748.87891 L 283.17969 756.14062 L 287.44336 756.14062 L 287.44336 748.87891 L 283.17969 748.87891 z M 310.51172 748.87891 L 310.51172 759.94531 L 303.70898 759.94531 L 303.70898 763.80664 L 310.51172 763.80664 L 310.51172 791.47461 L 314.77734 791.47461 L 314.77734 763.80664 L 321.86719 763.80664 L 321.86719 759.94531 L 314.77734 759.94531 L 314.77734 748.87891 L 310.51172 748.87891 z M 464.68555 748.87891 L 464.68555 764.96094 C 461.57292 761.21425 457.25012 759.19531 452.29297 759.19531 C 442.78213 759.19531 435.51953 766.34273 435.51953 775.73828 C 435.51953 785.07619 442.95392 792.22461 452.69531 792.22461 C 457.94069 792.22461 461.51528 790.3232 464.68555 785.76953 L 464.68555 791.47461 L 468.95117 791.47461 L 468.95117 748.87891 L 464.68555 748.87891 z M 830.38281 748.87891 L 830.38281 764.96094 C 827.27018 761.21425 822.94547 759.19531 817.98828 759.19531 C 808.47748 759.19531 801.21484 766.34273 801.21484 775.73828 C 801.21484 785.07619 808.65119 792.22461 818.39258 792.22461 C 823.63796 792.22461 827.21254 790.3232 830.38281 785.76953 L 830.38281 791.47461 L 834.64648 791.47461 L 834.64648 748.87891 L 830.38281 748.87891 z M 853.92969 748.87891 L 853.92969 756.14062 L 858.19531 756.14062 L 858.19531 748.87891 L 853.92969 748.87891 z M 1064.084 748.87891 L 1064.084 764.96094 C 1060.9714 761.21425 1056.6486 759.19531 1051.6914 759.19531 C 1042.1806 759.19531 1034.918 766.34273 1034.918 775.73828 C 1034.918 785.07619 1042.3543 792.22461 1052.0957 792.22461 C 1057.3411 792.22461 1060.9137 790.3232 1064.084 785.76953 L 1064.084 791.47461 L 1068.3496 791.47461 L 1068.3496 748.87891 L 1064.084 748.87891 z M 1087.6328 748.87891 L 1087.6328 756.14062 L 1091.8965 756.14062 L 1091.8965 748.87891 L 1087.6328 748.87891 z M 150.98633 759.19531 C 141.53312 759.19531 134.38477 766.34368 134.38477 775.79688 C 134.38477 785.19243 141.58968 792.22461 151.27344 792.22461 C 156.63409 792.22461 160.09233 790.43744 163.43555 785.94141 L 163.43555 791.47461 L 167.70117 791.47461 L 167.70117 759.94531 L 163.43555 759.94531 L 163.43555 765.53711 C 160.32288 761.15636 156.46226 759.19531 150.98633 759.19531 z M 202.66406 759.19531 C 193.21086 759.19531 185.77539 766.45806 185.77539 775.62305 C 185.77539 785.0186 193.26937 792.22461 202.95312 792.22461 C 206.87272 792.22461 210.50364 790.95605 213.44336 788.65039 C 215.4608 787.03643 216.67114 785.48087 218.40039 782.19531 L 213.55859 782.19531 C 210.27305 786.57606 207.21771 788.30469 202.7793 788.30469 C 195.68943 788.30469 190.09766 782.71289 190.09766 775.73828 C 190.09766 768.64839 195.57516 763.11523 202.60742 763.11523 C 207.27639 763.11523 211.13766 765.36349 213.55859 769.51367 L 218.34375 769.51367 C 215.80754 763.17312 209.75396 759.19531 202.66406 759.19531 z M 353.61523 759.19531 C 344.16203 759.19531 337.01563 766.34368 337.01562 775.79688 C 337.01562 785.19243 344.22054 792.22461 353.9043 792.22461 C 359.26495 792.22461 362.72319 790.43744 366.06641 785.94141 L 366.06641 791.47461 L 370.33203 791.47461 L 370.33203 759.94531 L 366.06641 759.94531 L 366.06641 765.53711 C 362.95374 761.15636 359.09117 759.19531 353.61523 759.19531 z M 404.02734 759.19531 C 399.87716 759.19531 396.5343 760.80919 393.88281 764.03711 L 393.88281 759.94531 L 389.61719 759.94531 L 389.61719 791.47461 L 393.88281 791.47461 L 393.88281 774.125 C 393.88281 770.60888 394.34227 768.7654 395.55273 766.97852 C 397.22431 764.55758 400.16459 763.11523 403.50781 763.11523 C 406.62044 763.11523 409.44458 764.38289 411.17383 766.51562 C 412.67249 768.47543 413.25 770.78146 413.25 774.93164 L 413.25 791.47461 L 417.51562 791.47461 L 417.51562 774.93164 C 417.51562 769.62863 416.76552 766.80485 414.74805 764.0957 C 412.26947 760.98307 408.46572 759.19531 404.02734 759.19531 z M 503.56445 759.19531 C 494.22653 759.19531 487.02148 766.28519 487.02148 775.50781 C 487.02148 785.19157 494.11109 792.22461 503.91016 792.22461 C 513.13277 792.22461 519.93555 785.25007 519.93555 775.79688 C 519.93555 766.17076 513.01766 759.19531 503.56445 759.19531 z M 581.24023 759.19531 C 571.90231 759.19531 564.69727 766.28519 564.69727 775.50781 C 564.69727 785.19157 571.78691 792.22461 581.58594 792.22461 C 590.80859 792.22461 597.61133 785.25007 597.61133 775.79688 C 597.61133 766.17076 590.6934 759.19531 581.24023 759.19531 z M 651.07812 759.19531 C 645.94806 759.19531 642.14258 762.94218 642.14258 768.07227 C 642.14258 770.32028 642.94956 772.27967 644.50586 773.7207 C 645.83164 774.93117 645.88975 774.93282 650.32812 776.77734 C 652.23029 777.52668 653.61295 778.21755 654.41992 778.73633 C 655.68803 779.60095 656.4375 781.09888 656.4375 782.82812 C 656.4375 785.9984 654.1898 788.30469 651.13477 788.30469 C 647.61867 788.30469 645.42782 786.05729 645.19727 782.19531 L 640.99023 782.19531 C 641.04806 788.3053 645.08242 792.22461 651.13477 792.22461 C 656.78365 792.22461 660.76172 788.18992 660.76172 782.42578 C 660.76172 778.56381 658.97424 775.91179 655.28516 774.35547 C 650.50092 772.39566 650.2699 772.28145 649.34766 771.82031 C 647.38782 770.84041 646.4668 769.51445 646.4668 767.66992 C 646.4668 765.1337 648.48332 763.11523 651.01953 763.11523 C 653.78633 763.11523 655.40031 764.72921 655.63086 767.72656 L 659.95508 767.72656 C 659.78235 762.65412 656.15059 759.19531 651.07812 759.19531 z M 693.13477 759.19531 C 683.96979 759.19531 676.76367 766.40142 676.76367 775.56641 C 676.76367 784.90431 684.0859 792.22461 693.42383 792.22461 C 697.45874 792.22461 701.26245 790.72672 704.14453 788.01758 C 706.39252 785.88484 707.89125 783.69347 708.75586 781.09961 L 704.31641 781.09961 C 702.52952 785.42272 698.09283 788.30469 693.30859 788.30469 C 686.85274 788.30469 681.37516 783.34832 681.0293 777.12305 L 709.5625 777.12305 C 709.5625 772.79994 708.98602 770.14765 707.42969 767.38086 C 704.60528 762.36606 699.12947 759.19531 693.13477 759.19531 z M 892.78906 759.19531 C 883.33586 759.19531 876.18945 766.34368 876.18945 775.79688 C 876.18945 785.19243 883.39437 792.22461 893.07812 792.22461 C 898.43878 792.22461 901.89705 790.43744 905.24023 785.94141 L 905.24023 791.47461 L 909.50586 791.47461 L 909.50586 759.94531 L 905.24023 759.94531 L 905.24023 765.53711 C 902.1276 761.15636 898.26499 759.19531 892.78906 759.19531 z M 972.1543 759.19531 C 962.70113 759.19531 955.55469 766.34368 955.55469 775.79688 C 955.55469 785.19243 962.75961 792.22461 972.44336 792.22461 C 977.80401 792.22461 981.26225 790.43744 984.60547 785.94141 L 984.60547 791.47461 L 988.87109 791.47461 L 988.87109 759.94531 L 984.60547 759.94531 L 984.60547 765.53711 C 981.49284 761.15636 977.63023 759.19531 972.1543 759.19531 z M 1126.4922 759.19531 C 1117.039 759.19531 1109.8926 766.34368 1109.8926 775.79688 C 1109.8926 785.19243 1117.0975 792.22461 1126.7812 792.22461 C 1132.1419 792.22461 1135.6001 790.43744 1138.9434 785.94141 L 1138.9434 791.47461 L 1143.209 791.47461 L 1143.209 759.94531 L 1138.9434 759.94531 L 1138.9434 765.53711 C 1135.8307 761.15636 1131.9681 759.19531 1126.4922 759.19531 z M 236.23828 759.94531 L 236.23828 791.47461 L 240.50391 791.47461 L 240.50391 759.94531 L 236.23828 759.94531 z M 283.17969 759.94531 L 283.17969 791.47461 L 287.44336 791.47461 L 287.44336 759.94531 L 283.17969 759.94531 z M 727.45117 759.94531 L 727.45117 776.94922 C 727.45117 781.61817 728.25808 784.90333 729.92969 787.20898 C 732.29299 790.49455 736.09762 792.22461 740.82422 792.22461 C 745.72373 792.22461 748.836 790.49579 750.96875 786.57617 L 750.96875 791.47461 L 755.23438 791.47461 L 755.23438 759.94531 L 750.96875 759.94531 L 750.96875 776.14258 C 750.96875 780.00455 750.3941 782.42496 749.06836 784.38477 C 747.28147 786.86335 744.45547 788.30469 741.16992 788.30469 C 737.65379 788.30469 734.65786 786.86435 733.2168 784.32812 C 732.23692 782.71416 731.7168 780.17714 731.7168 776.94922 L 731.7168 759.94531 L 727.45117 759.94531 z M 853.92969 759.94531 L 853.92969 791.47461 L 858.19531 791.47461 L 858.19531 759.94531 L 853.92969 759.94531 z M 1087.6328 759.94531 L 1087.6328 791.47461 L 1091.8965 791.47461 L 1091.8965 759.94531 L 1087.6328 759.94531 z M 151.10156 763.11523 C 158.01855 763.11523 163.43555 768.53416 163.43555 775.56641 C 163.43555 782.71394 158.13374 788.30469 151.33203 788.30469 C 144.18453 788.30469 138.70703 782.71299 138.70703 775.50781 C 138.70703 768.64848 144.24225 763.11523 151.10156 763.11523 z M 353.73242 763.11523 C 360.64941 763.11523 366.06641 768.53416 366.06641 775.56641 C 366.06641 782.71394 360.7646 788.30469 353.96289 788.30469 C 346.81539 788.30469 341.33789 782.71299 341.33789 775.50781 C 341.33789 768.64848 346.87311 763.11523 353.73242 763.11523 z M 452.17773 763.11523 C 459.15236 763.11523 464.85742 768.70608 464.85742 775.62305 C 464.85742 782.54002 459.32412 788.30469 452.58008 788.30469 C 445.3749 788.30469 439.8418 782.77158 439.8418 775.56641 C 439.8418 768.64944 445.31842 763.11523 452.17773 763.11523 z M 503.56445 763.11523 C 510.4814 763.11523 515.61133 768.53306 515.61133 775.85352 C 515.61133 783.05869 510.65427 788.30469 503.79492 788.30469 C 496.53211 788.30469 491.3457 783.00115 491.3457 775.62305 C 491.3457 768.47551 496.58983 763.11523 503.56445 763.11523 z M 581.24023 763.11523 C 588.15719 763.11523 593.28711 768.53306 593.28711 775.85352 C 593.28711 783.05869 588.33002 788.30469 581.4707 788.30469 C 574.20789 788.30469 569.02148 783.00115 569.02148 775.62305 C 569.02148 768.47551 574.26561 763.11523 581.24023 763.11523 z M 693.07617 763.11523 C 699.18619 763.11523 703.85582 766.97685 705.29688 773.25977 L 681.14453 773.25977 C 682.29736 767.20742 687.08146 763.11523 693.07617 763.11523 z M 817.87305 763.11523 C 824.84767 763.11523 830.55469 768.70608 830.55469 775.62305 C 830.55469 782.54002 825.02138 788.30469 818.27734 788.30469 C 811.07217 788.30469 805.53906 782.77158 805.53906 775.56641 C 805.53906 768.64944 811.01373 763.11523 817.87305 763.11523 z M 892.9043 763.11523 C 899.82125 763.11523 905.24023 768.53416 905.24023 775.56641 C 905.24023 782.71394 899.93648 788.30469 893.13477 788.30469 C 885.98726 788.30469 880.51172 782.71299 880.51172 775.50781 C 880.51172 768.64848 886.04498 763.11523 892.9043 763.11523 z M 972.26953 763.11523 C 979.18648 763.11523 984.60547 768.53416 984.60547 775.56641 C 984.60547 782.71394 979.30168 788.30469 972.5 788.30469 C 965.35246 788.30469 959.87695 782.71299 959.87695 775.50781 C 959.87695 768.64848 965.41018 763.11523 972.26953 763.11523 z M 1051.5762 763.11523 C 1058.5508 763.11523 1064.2578 768.70608 1064.2578 775.62305 C 1064.2578 782.54002 1058.7245 788.30469 1051.9805 788.30469 C 1044.7753 788.30469 1039.2422 782.77158 1039.2422 775.56641 C 1039.2422 768.64944 1044.7169 763.11523 1051.5762 763.11523 z M 1126.6074 763.11523 C 1133.5244 763.11523 1138.9434 768.53416 1138.9434 775.56641 C 1138.9434 782.71394 1133.6396 788.30469 1126.8379 788.30469 C 1119.6904 788.30469 1114.2148 782.71299 1114.2148 775.50781 C 1114.2148 768.64848 1119.7481 763.11523 1126.6074 763.11523 z "
       transform="matrix(0.26458333,0,0,0.26458333,159.85043,-256.89539)"
       id="path878" />
  </g>
</svg>
