<?xml version="1.0" encoding="UTF-8" standalone="no"?>
<!-- Created with Inkscape (http://www.inkscape.org/) -->

<svg
   xmlns:dc="http://purl.org/dc/elements/1.1/"
   xmlns:cc="http://creativecommons.org/ns#"
   xmlns:rdf="http://www.w3.org/1999/02/22-rdf-syntax-ns#"
   xmlns:svg="http://www.w3.org/2000/svg"
   xmlns="http://www.w3.org/2000/svg"
   xmlns:sodipodi="http://sodipodi.sourceforge.net/DTD/sodipodi-0.dtd"
   xmlns:inkscape="http://www.inkscape.org/namespaces/inkscape"
   width="7.7957616mm"
   height="2.2617409mm"
   viewBox="0 0 7.7957616 2.2617409"
   version="1.1"
   id="svg8"
   inkscape:version="0.92.3 (2405546, 2018-03-11)"
   sodipodi:docname="rightSharpener.svg">
  <defs
     id="defs2" />
  <sodipodi:namedview
     id="base"
     pagecolor="#ffffff"
     bordercolor="#666666"
     borderopacity="1.0"
     inkscape:pageopacity="0.0"
     inkscape:pageshadow="2"
     inkscape:zoom="11.2"
     inkscape:cx="31.030937"
     inkscape:cy="3.2905805"
     inkscape:document-units="mm"
     inkscape:current-layer="layer1"
     showgrid="false"
     inkscape:window-width="1280"
     inkscape:window-height="710"
     inkscape:window-x="0"
     inkscape:window-y="25"
     inkscape:window-maximized="1"
     fit-margin-top="0"
     fit-margin-left="0"
     fit-margin-right="0"
     fit-margin-bottom="0" />
  <metadata
     id="metadata5">
    <rdf:RDF>
      <cc:Work
         rdf:about="">
        <dc:format>image/svg+xml</dc:format>
        <dc:type
           rdf:resource="http://purl.org/dc/dcmitype/StillImage" />
        <dc:title />
      </cc:Work>
    </rdf:RDF>
  </metadata>
  <g
     inkscape:label="Camada 1"
     inkscape:groupmode="layer"
     id="layer1"
     transform="translate(-75.911733,-125.40525)">
    <path
       style="opacity:1;fill:#ffffff;fill-opacity:1;stroke:none;stroke-width:0.32007936;stroke-miterlimit:4;stroke-dasharray:none;stroke-opacity:1"
       d="m 82.576959,125.40525 c 0.04058,0 0.08104,0.0154 0.112138,0.0465 l 0.972034,0.97203 c 0.01483,0.0148 0.02659,0.0329 0.03462,0.0527 0.0038,0.009 0.0037,0.0196 0.0057,0.0295 0.002,0.0101 0.0062,0.0192 0.0062,0.03 v 5.2e-4 c 2e-6,0.0203 -0.0041,0.0403 -0.01189,0.0594 -0.008,0.0196 -0.01993,0.0374 -0.03462,0.0522 0,0 0,5.1e-4 0,5.1e-4 l -0.972034,0.97152 c -0.06219,0.0622 -0.162086,0.0622 -0.224276,0 -0.06219,-0.0622 -0.06215,-0.16212 0,-0.22427 l 0.700216,-0.70074 H 76.07038 c -0.08795,0 -0.158647,-0.0712 -0.158647,-0.15916 0,-0.0879 0.0707,-0.15865 0.158647,-0.15865 h 7.095174 l -0.700733,-0.70073 c -0.06219,-0.0622 -0.06222,-0.16257 0,-0.22479 0.03109,-0.0311 0.07156,-0.0465 0.112138,-0.0465 z"
       id="rect815"
       inkscape:connector-curvature="0" />
  </g>
</svg>
