<?xml version="1.0" encoding="UTF-8" standalone="no"?>
<!-- Created with Inkscape (http://www.inkscape.org/) -->

<svg
   xmlns:dc="http://purl.org/dc/elements/1.1/"
   xmlns:cc="http://creativecommons.org/ns#"
   xmlns:rdf="http://www.w3.org/1999/02/22-rdf-syntax-ns#"
   xmlns:svg="http://www.w3.org/2000/svg"
   xmlns="http://www.w3.org/2000/svg"
   xmlns:sodipodi="http://sodipodi.sourceforge.net/DTD/sodipodi-0.dtd"
   xmlns:inkscape="http://www.inkscape.org/namespaces/inkscape"
   width="6.7659183mm"
   height="3.5421696mm"
   viewBox="0 0 6.7659183 3.5421696"
   version="1.1"
   id="svg8"
   inkscape:version="0.92.3 (2405546, 2018-03-11)"
   sodipodi:docname="sharpener.svg">
  <defs
     id="defs2" />
  <sodipodi:namedview
     id="base"
     pagecolor="#ffffff"
     bordercolor="#666666"
     borderopacity="1.0"
     inkscape:pageopacity="0.0"
     inkscape:pageshadow="2"
     inkscape:zoom="22.4"
     inkscape:cx="8.9107032"
     inkscape:cy="4.4803766"
     inkscape:document-units="mm"
     inkscape:current-layer="layer1"
     showgrid="false"
     inkscape:window-width="1280"
     inkscape:window-height="710"
     inkscape:window-x="0"
     inkscape:window-y="25"
     inkscape:window-maximized="1"
     fit-margin-top="0"
     fit-margin-left="0"
     fit-margin-right="0"
     fit-margin-bottom="0"
     inkscape:snap-nodes="false"
     showguides="false" />
  <metadata
     id="metadata5">
    <rdf:RDF>
      <cc:Work
         rdf:about="">
        <dc:format>image/svg+xml</dc:format>
        <dc:type
           rdf:resource="http://purl.org/dc/dcmitype/StillImage" />
        <dc:title></dc:title>
      </cc:Work>
    </rdf:RDF>
  </metadata>
  <g
     inkscape:label="Camada 1"
     inkscape:groupmode="layer"
     id="layer1"
     transform="translate(-44.474462,-32.103369)">
    <path
       style="display:inline;opacity:1;fill:#ffffff;fill-opacity:1;stroke:none;stroke-width:0.19836432;stroke-miterlimit:4;stroke-dasharray:none;stroke-opacity:1"
       d="m 47.85719,32.377813 -3.256745,3.263726 3.256745,0.004 3.256347,-0.004 z"
       id="rect815"
       inkscape:connector-curvature="0"
       sodipodi:nodetypes="ccccc" />
    <path
       sodipodi:type="inkscape:offset"
       inkscape:radius="0.029361447"
       inkscape:original="M 47.857422 32.132812 L 47.792969 32.195312 L 44.503906 35.486328 L 44.751953 35.486328 L 47.857422 32.378906 L 50.962891 35.486328 L 51.210938 35.486328 L 47.857422 32.132812 z "
       style="color:#000000;font-style:normal;font-variant:normal;font-weight:normal;font-stretch:normal;font-size:medium;line-height:normal;font-family:sans-serif;font-variant-ligatures:normal;font-variant-position:normal;font-variant-caps:normal;font-variant-numeric:normal;font-variant-alternates:normal;font-feature-settings:normal;text-indent:0;text-align:start;text-decoration:none;text-decoration-line:none;text-decoration-style:solid;text-decoration-color:#000000;letter-spacing:normal;word-spacing:normal;text-transform:none;writing-mode:lr-tb;direction:ltr;text-orientation:mixed;dominant-baseline:auto;baseline-shift:baseline;text-anchor:start;white-space:normal;shape-padding:0;clip-rule:nonzero;display:inline;overflow:visible;visibility:visible;opacity:1;isolation:auto;mix-blend-mode:normal;color-interpolation:sRGB;color-interpolation-filters:linearRGB;solid-color:#000000;solid-opacity:1;vector-effect:none;fill:#00616c;fill-opacity:1;fill-rule:nonzero;stroke:none;stroke-width:0.1780946;stroke-linecap:butt;stroke-linejoin:miter;stroke-miterlimit:4;stroke-dasharray:none;stroke-dashoffset:0;stroke-opacity:1;color-rendering:auto;image-rendering:auto;shape-rendering:auto;text-rendering:auto;enable-background:accumulate"
       id="path1425"
       d="m 47.851562,32.103516 a 0.02936438,0.02936438 0 0 0 -0.0059,0.002 0.02936438,0.02936438 0 0 0 -0.002,0.002 0.02936438,0.02936438 0 0 0 -0.0059,0.0039 l -0.06445,0.0625 a 0.02936438,0.02936438 0 0 0 -0.002,0 l -3.289062,3.291016 a 0.02936438,0.02936438 0 0 0 -0.002,0.002 0.02936438,0.02936438 0 0 0 -0.002,0.0059 0.02936438,0.02936438 0 0 0 -0.002,0.002 0.02936438,0.02936438 0 0 0 -0.002,0.0059 0.02936438,0.02936438 0 0 0 0,0.0059 0.02936438,0.02936438 0 0 0 0,0.0059 0.02936438,0.02936438 0 0 0 0.002,0.0059 0.02936438,0.02936438 0 0 0 0.002,0.002 0.02936438,0.02936438 0 0 0 0.0039,0.0059 0.02936438,0.02936438 0 0 0 0.002,0.002 0.02936438,0.02936438 0 0 0 0.002,0.002 0.02936438,0.02936438 0 0 0 0.002,0.002 0.02936438,0.02936438 0 0 0 0.002,0 0.02936438,0.02936438 0 0 0 0.0059,0.0039 0.02936438,0.02936438 0 0 0 0.0059,0 0.02936438,0.02936438 0 0 0 0.002,0 h 0.248047 a 0.02936438,0.02936438 0 0 0 0.0059,0 0.02936438,0.02936438 0 0 0 0.002,-0.002 0.02936438,0.02936438 0 0 0 0.0059,-0.002 0.02936438,0.02936438 0 0 0 0.002,-0.002 0.02936438,0.02936438 0 0 0 0.0059,-0.002 l 3.083984,-3.085937 3.083984,3.085937 a 0.02936438,0.02936438 0 0 0 0.002,0.002 0.02936438,0.02936438 0 0 0 0.0059,0.002 0.02936438,0.02936438 0 0 0 0.002,0.002 0.02936438,0.02936438 0 0 0 0.0059,0.002 0.02936438,0.02936438 0 0 0 0.0059,0 h 0.248047 a 0.02936438,0.02936438 0 0 0 0.0059,0 0.02936438,0.02936438 0 0 0 0.002,-0.002 0.02936438,0.02936438 0 0 0 0.0059,-0.002 0.02936438,0.02936438 0 0 0 0.002,-0.002 0.02936438,0.02936438 0 0 0 0.0059,-0.0039 0.02936438,0.02936438 0 0 0 0.002,-0.002 0.02936438,0.02936438 0 0 0 0.002,-0.002 0.02936438,0.02936438 0 0 0 0,-0.002 0.02936438,0.02936438 0 0 0 0.002,-0.0059 0.02936438,0.02936438 0 0 0 0.002,-0.002 0.02936438,0.02936438 0 0 0 0,-0.0059 0.02936438,0.02936438 0 0 0 0,-0.0059 0.02936438,0.02936438 0 0 0 -0.002,-0.0059 0.02936438,0.02936438 0 0 0 -0.0039,-0.0059 0.02936438,0.02936438 0 0 0 -0.002,-0.002 0.02936438,0.02936438 0 0 0 0,-0.002 l -3.353516,-3.353516 a 0.02936438,0.02936438 0 0 0 -0.002,-0.002 0.02936438,0.02936438 0 0 0 -0.0059,-0.002 0.02936438,0.02936438 0 0 0 -0.002,-0.002 0.02936438,0.02936438 0 0 0 -0.0059,-0.002 0.02936438,0.02936438 0 0 0 -0.0059,0 0.02936438,0.02936438 0 0 0 -0.0059,0 z" />
  </g>
</svg>
